<?xml version="1.0" encoding="UTF-8" standalone="no"?>
<!-- Created with Inkscape (http://www.inkscape.org/) -->

<svg
   width="216mm"
   height="216mm"
   viewBox="0 0 216 216"
   version="1.1"
   id="svg5"
   inkscape:version="1.2.2 (732a01da63, 2022-12-09)"
   sodipodi:docname="backside.svg"
   xml:space="preserve"
   xmlns:inkscape="http://www.inkscape.org/namespaces/inkscape"
   xmlns:sodipodi="http://sodipodi.sourceforge.net/DTD/sodipodi-0.dtd"
   xmlns="http://www.w3.org/2000/svg"
   xmlns:svg="http://www.w3.org/2000/svg"><sodipodi:namedview
     id="namedview7"
     pagecolor="#505050"
     bordercolor="#ffffff"
     borderopacity="1"
     inkscape:showpageshadow="0"
     inkscape:pageopacity="0"
     inkscape:pagecheckerboard="1"
     inkscape:deskcolor="#505050"
     inkscape:document-units="mm"
     showgrid="true"
     inkscape:zoom="1.6385"
     inkscape:cx="467.80592"
     inkscape:cy="356.42356"
     inkscape:window-width="3840"
     inkscape:window-height="2054"
     inkscape:window-x="2869"
     inkscape:window-y="-11"
     inkscape:window-maximized="1"
     inkscape:current-layer="layer1" /><defs
     id="defs2"><inkscape:path-effect
       effect="fillet_chamfer"
       id="path-effect2856"
       is_visible="true"
       lpeversion="1"
       nodesatellites_param="F,0,0,1,0,0.1984375,0,1 @ F,0,0,1,0,0.1984375,0,1 @ F,0,0,1,0,0.1984375,0,1 @ F,0,0,1,0,0.1984375,0,1"
       unit="px"
       method="auto"
       mode="F"
       radius="0.75"
       chamfer_steps="1"
       flexible="false"
       use_knot_distance="true"
       apply_no_radius="true"
       apply_with_radius="true"
       only_selected="false"
       hide_knots="false" /><inkscape:path-effect
       effect="fillet_chamfer"
       id="path-effect2852"
       is_visible="true"
       lpeversion="1"
       nodesatellites_param="F,0,0,1,0,0,0,1 @ F,0,0,1,0,0,0,1 @ F,0,0,1,0,0,0,1 @ F,0,0,1,0,0,0,1"
       unit="px"
       method="auto"
       mode="F"
       radius="0.75"
       chamfer_steps="1"
       flexible="false"
       use_knot_distance="true"
       apply_no_radius="true"
       apply_with_radius="true"
       only_selected="false"
       hide_knots="false" /><inkscape:path-effect
       effect="fillet_chamfer"
       id="path-effect2856-4"
       is_visible="true"
       lpeversion="1"
       nodesatellites_param="F,0,0,1,0,0.1984375,0,1 @ F,0,0,1,0,0.1984375,0,1 @ F,0,0,1,0,0.1984375,0,1 @ F,0,0,1,0,0.1984375,0,1"
       unit="px"
       method="auto"
       mode="F"
       radius="0.75"
       chamfer_steps="1"
       flexible="false"
       use_knot_distance="true"
       apply_no_radius="true"
       apply_with_radius="true"
       only_selected="false"
       hide_knots="false" /><inkscape:path-effect
       effect="fillet_chamfer"
       id="path-effect2856-4-8"
       is_visible="true"
       lpeversion="1"
       nodesatellites_param="F,0,0,1,0,0.1984375,0,1 @ F,0,0,1,0,0.1984375,0,1 @ F,0,0,1,0,0.1984375,0,1 @ F,0,0,1,0,0.1984375,0,1"
       unit="px"
       method="auto"
       mode="F"
       radius="0.75"
       chamfer_steps="1"
       flexible="false"
       use_knot_distance="true"
       apply_no_radius="true"
       apply_with_radius="true"
       only_selected="false"
       hide_knots="false" /></defs><g
     inkscape:groupmode="layer"
     id="layer1"
     inkscape:label="Layer 1"><rect
       style="opacity:1;fill:none;stroke:#000000;stroke-width:0"
       id="rect1362"
       width="216"
       height="216"
       x="5.3593237e-07"
       y="5.3593237e-07"
       inkscape:label="frame" /><path
       style="fill:#010002"
       d="M 6.3,0 H 29 l 6,6 v 6 h -1.25 v 3 H 35 V 38.7 C 35,39.418 34.418,40 33.7,40 H 29 c 0,-0.552 -0.448,-1 -1,-1 H 14 c -0.552,0 -1,0.448 -1,1 H 6.3 C 5.582,40 5,39.418 5,38.7 V 19 H 6.75 V 10 H 5 V 1.3 C 5,0.582 5.582,0 6.3,0 Z"
       id="path2138"
       transform="matrix(0,-0.30000001,0.30000001,0,79.999999,143)"
       inkscape:label="sd card icon" /><path
       sodipodi:type="star"
       style="opacity:1;fill:#000000;stroke:#000000;stroke-width:0"
       id="path2207"
       inkscape:flatsided="false"
       sodipodi:sides="3"
       sodipodi:cx="86.229782"
       sodipodi:cy="76.137352"
       sodipodi:r1="17.843428"
       sodipodi:r2="8.9217148"
       sodipodi:arg1="0"
       sodipodi:arg2="1.0471976"
       inkscape:rounded="0"
       inkscape:randomized="0"
       d="m 104.07321,76.137352 -13.382571,7.726432 -13.382571,7.72643 -1e-6,-15.452862 1e-6,-15.452862 13.382572,7.726431 z"
       inkscape:transform-center-x="0.57735464"
       transform="matrix(-0.12942586,0,0,0.12942586,88.469764,127.14586)"
       inkscape:transform-center-y="1.9632267e-05"
       inkscape:label="sd card arrow" /><rect
       style="fill:#000000;stroke-width:0.264583"
       id="rect121"
       width="29"
       height="3"
       x="-151.5"
       y="68"
       inkscape:label="sd card slot"
       transform="rotate(-90)" /><g
       id="g315"
       inkscape:label="ROT"
       transform="translate(11.928433,-33.008607)"><g
         inkscape:label="animation"
         id="layer1-4"
         transform="translate(129.57157,134.00861)"><circle
           style="fill:#000000;stroke:#000000;stroke-width:0"
           id="path2485"
           cx="5.5"
           cy="4"
           r="2.4999995" /><path
           id="rect2487"
           d="m 0.198438,3.6000004 h 1.4681241 a 0.1984375,0.1984375 45 0 1 0.1984375,0.1984375 v 0.00277 A 0.1984375,0.1984375 135 0 1 1.6665621,3.9996461 H 0.198438 A 0.1984375,0.1984375 45 0 1 5e-7,3.8012086 v -0.00277 A 0.1984375,0.1984375 135 0 1 0.198438,3.6000004 Z"
           style="fill:#000000;stroke:#000000;stroke-width:0" /><path
           id="rect2487-9"
           d="M 0.69843798,2.0000005 H 2.166562 A 0.1984375,0.1984375 45 0 1 2.3649995,2.198438 v 0.00277 A 0.1984375,0.1984375 135 0 1 2.166562,2.3996462 H 0.69843798 A 0.1984375,0.1984375 45 0 1 0.50000048,2.2012087 v -0.00277 a 0.1984375,0.1984375 135 0 1 0.1984375,-0.1984382 z"
           style="fill:#000000;stroke:#000000;stroke-width:0" /><path
           id="rect2487-9-7"
           d="M 0.69843798,5.2000003 H 2.166562 a 0.1984375,0.1984375 45 0 1 0.1984375,0.1984375 v 0.00277 A 0.1984375,0.1984375 135 0 1 2.166562,5.599646 H 0.69843798 A 0.1984375,0.1984375 45 0 1 0.50000048,5.4012085 v -0.00277 a 0.1984375,0.1984375 135 0 1 0.1984375,-0.1984382 z"
           style="fill:#000000;stroke:#000000;stroke-width:0" /></g><circle
         style="fill:#000000;stroke-width:0.264583"
         id="path324-9"
         cx="133.57156"
         cy="122.00828"
         r="3.5"
         inkscape:label="ROT3" /><g
         style="fill:#000000"
         id="g2307"
         transform="matrix(0.00867679,0,0,0.00875,91.571566,133.97486)"
         inkscape:label="diashow"><g
           id="g2296">
	<path
   d="M 922,453 V 81 C 922,69.954 913.046,61 902,61 H 410 c -11.045,0 -20,8.954 -20,20 v 149 h 318 c 24.812,0 45,20.187 45,45 v 198 h 149 c 11.046,10e-4 20,-8.954 20,-20 z"
   id="path2290" />
	<path
   d="m 557,667.001 h 151 c 11.046,0 20,-8.954 20,-20 v -174 -198 c 0,-11.046 -8.954,-20 -20,-20 H 390 216 c -11.045,0 -20,8.954 -20,20 v 149 h 194 122 c 24.812,0 45,20.187 45,45 v 4 z"
   id="path2292" />
	<path
   d="m 0,469 v 372 c 0,11.046 8.955,20 20,20 h 492 c 11.046,0 20,-8.954 20,-20 V 692 679.499 667 473 469 c 0,-11.046 -8.954,-20 -20,-20 H 390 196 183.5 171 20 C 8.955,449 0,457.955 0,469 Z"
   id="path2294" />
</g></g><circle
         style="fill:#000000;stroke-width:0.264583"
         id="path324-1"
         cx="95.571571"
         cy="122.00828"
         r="3.5"
         inkscape:label="ROT2" /><g
         style="fill:#000000"
         id="g2288"
         transform="matrix(0.03853045,0,0,0.03853045,53.571568,134.00861)"
         inkscape:label="brightness"><circle
           cx="103.814"
           cy="103.814"
           r="45.868"
           id="circle2253" /><path
           d="m 103.814,157.183 c -29.427,0 -53.368,-23.941 -53.368,-53.368 0,-29.427 23.941,-53.368 53.368,-53.368 29.427,0 53.368,23.941 53.368,53.368 0,29.427 -23.941,53.368 -53.368,53.368 z m 0,-91.737 c -21.156,0 -38.368,17.212 -38.368,38.368 0,21.156 17.212,38.368 38.368,38.368 21.156,0 38.368,-17.212 38.368,-38.368 0,-21.156 -17.212,-38.368 -38.368,-38.368 z"
           id="path2255" /><path
           d="m 103.814,39.385 c -4.142,0 -7.5,-3.358 -7.5,-7.5 V 7.5 c 0,-4.142 3.358,-7.5 7.5,-7.5 4.142,0 7.5,3.358 7.5,7.5 v 24.385 c 0,4.142 -3.358,7.5 -7.5,7.5 z"
           id="path2257" /><path
           d="m 103.814,207.628 c -4.142,0 -7.5,-3.358 -7.5,-7.5 v -24.385 c 0,-4.142 3.358,-7.5 7.5,-7.5 4.142,0 7.5,3.358 7.5,7.5 v 24.385 c 0,4.143 -3.358,7.5 -7.5,7.5 z"
           id="path2259" /><path
           d="m 200.128,111.314 h -24.385 c -4.142,0 -7.5,-3.358 -7.5,-7.5 0,-4.142 3.358,-7.5 7.5,-7.5 h 24.385 c 4.142,0 7.5,3.358 7.5,7.5 0,4.142 -3.357,7.5 -7.5,7.5 z"
           id="path2261" /><path
           d="M 31.885,111.314 H 7.5 c -4.142,0 -7.5,-3.358 -7.5,-7.5 0,-4.142 3.358,-7.5 7.5,-7.5 h 24.385 c 4.142,0 7.5,3.358 7.5,7.5 0,4.142 -3.358,7.5 -7.5,7.5 z"
           id="path2263" /><path
           d="m 154.676,60.452 c -1.919,0 -3.839,-0.732 -5.303,-2.197 -2.929,-2.929 -2.929,-7.678 0,-10.606 l 17.243,-17.242 c 2.929,-2.929 7.678,-2.93 10.606,0 2.929,2.929 2.929,7.678 0,10.606 l -17.243,17.242 c -1.464,1.465 -3.384,2.197 -5.303,2.197 z"
           id="path2265" /><path
           d="m 35.709,179.419 c -1.919,0 -3.839,-0.732 -5.303,-2.197 -2.929,-2.929 -2.929,-7.678 0,-10.606 l 17.243,-17.243 c 2.929,-2.929 7.678,-2.929 10.606,0 2.929,2.929 2.929,7.678 0,10.606 l -17.243,17.243 c -1.464,1.465 -3.383,2.197 -5.303,2.197 z"
           id="path2267" /><path
           d="m 171.918,179.419 c -1.919,0 -3.839,-0.732 -5.303,-2.197 l -17.243,-17.243 c -2.929,-2.929 -2.929,-7.678 0,-10.606 2.929,-2.929 7.678,-2.929 10.606,0 l 17.243,17.243 c 2.929,2.929 2.929,7.678 0,10.606 -1.464,1.465 -3.383,2.197 -5.303,2.197 z"
           id="path2269" /><path
           d="m 52.952,60.452 c -1.919,0 -3.839,-0.732 -5.303,-2.197 L 30.406,41.013 c -2.929,-2.929 -2.929,-7.677 0,-10.606 2.929,-2.929 7.678,-2.93 10.606,0 l 17.243,17.242 c 2.929,2.929 2.929,7.677 0,10.606 -1.464,1.465 -3.383,2.197 -5.303,2.197 z"
           id="path2271" /></g><circle
         style="fill:#000000;stroke-width:0.264583"
         id="path324"
         cx="57.571568"
         cy="122.00828"
         r="3.5"
         inkscape:label="ROT1" /></g><g
       id="g310"
       inkscape:label="BTN"
       transform="matrix(1.2,0,0,1.2,-2,2.4996696)"
       style="fill:#000000"><g
         aria-label="Menu"
         transform="matrix(0.83333334,0,0,0.83333334,1.6666667,-2.083058)"
         id="text2124"
         style="font-weight:bold;font-size:4.9389px;font-family:'Segoe UI';-inkscape-font-specification:'Segoe UI Bold';text-align:center;text-anchor:middle;opacity:1;stroke:#000000;stroke-width:0"
         inkscape:label="Menu"><path
           d="m 31.611508,100.95819 h -0.769291 v -2.069128 q 0,-0.335209 0.02894,-0.740353 h -0.01929 q -0.06029,0.318328 -0.108521,0.458199 l -0.810288,2.351282 h -0.636655 l -0.824758,-2.327166 q -0.03376,-0.09405 -0.10852,-0.482315 h -0.02171 q 0.03135,0.511254 0.03135,0.897105 v 1.912376 h -0.701768 v -3.458194 h 1.140674 l 0.706591,2.049837 q 0.08441,0.24598 0.12299,0.494377 h 0.01447 q 0.06511,-0.286982 0.13746,-0.4992 l 0.706591,-2.045014 h 1.111734 z"
           id="path449" /><path
           d="m 34.541569,99.940507 h -1.61093 q 0.03858,0.537783 0.677651,0.537783 0.407556,0 0.716237,-0.19293 v 0.54984 q -0.342443,0.18328 -0.88987,0.18328 -0.59807,0 -0.928455,-0.33039 -0.330386,-0.33279 -0.330386,-0.926039 0,-0.614951 0.356913,-0.974275 0.356913,-0.359324 0.877812,-0.359324 0.540193,0 0.834404,0.320739 0.296624,0.320739 0.296624,0.870577 z m -0.706591,-0.467845 q 0,-0.530545 -0.42926,-0.530545 -0.183279,0 -0.318327,0.151929 -0.132637,0.151929 -0.161576,0.378616 z"
           id="path451" /><path
           d="m 37.379989,100.95819 h -0.759645 v -1.372184 q 0,-0.573954 -0.409967,-0.573954 -0.197749,0 -0.325563,0.151929 -0.127813,0.151929 -0.127813,0.385852 v 1.408357 h -0.762057 v -2.469449 h 0.762057 v 0.390675 h 0.0096 q 0.272508,-0.450964 0.793408,-0.450964 0.819934,0 0.819934,1.017683 z"
           id="path453" /><path
           d="m 40.329342,100.95819 h -0.759645 v -0.3762 h -0.01206 q -0.282154,0.43649 -0.754822,0.43649 -0.85852,0 -0.85852,-1.039387 v -1.490352 h 0.759645 v 1.422828 q 0,0.523311 0.414791,0.523311 0.204983,0 0.327974,-0.14228 0.12299,-0.1447 0.12299,-0.390678 v -1.413181 h 0.759645 z"
           id="path455" /></g><circle
         style="fill:#000000;stroke-width:0.264583"
         id="path283-9"
         cy="71.666664"
         cx="30"
         r="5"
         inkscape:label="BTN3" /><g
         aria-label="Mode"
         transform="matrix(0.83333334,0,0,0.83333334,1.6666667,-2.083058)"
         id="text2120"
         style="font-weight:bold;font-size:4.9389px;font-family:'Segoe UI';-inkscape-font-specification:'Segoe UI Bold';text-align:center;text-anchor:middle;opacity:1;stroke:#000000;stroke-width:0"
         inkscape:label="Mode"><path
           d="m 31.466509,76.155945 h -0.769292 v -2.069129 q 0,-0.335209 0.02894,-0.740353 h -0.01929 q -0.06029,0.318328 -0.108521,0.458199 l -0.810288,2.351283 H 29.1514 l -0.824758,-2.327167 q -0.03376,-0.09405 -0.108521,-0.482315 h -0.0217 q 0.03135,0.511253 0.03135,0.897105 v 1.912377 H 27.526 V 72.69775 h 1.140674 l 0.70659,2.049837 q 0.08441,0.24598 0.12299,0.494372 h 0.01447 q 0.06511,-0.286977 0.137459,-0.499196 l 0.706591,-2.045013 h 1.111735 z"
           id="path440" /><path
           d="m 33.35477,76.216234 q -0.617362,0 -0.971864,-0.344855 -0.352089,-0.347266 -0.352089,-0.940513 0,-0.612539 0.366559,-0.957394 0.366559,-0.347266 0.991156,-0.347266 0.614951,0 0.964629,0.347266 0.349678,0.344855 0.349678,0.913986 0,0.614951 -0.361736,0.971863 -0.359324,0.356913 -0.986333,0.356913 z m 0.01929,-2.006428 q -0.270096,0 -0.419614,0.185691 -0.149517,0.185691 -0.149517,0.525723 0,0.711414 0.573954,0.711414 0.547427,0 0.547427,-0.730707 0,-0.692121 -0.55225,-0.692121 z"
           id="path442" /><path
           d="M 37.613607,76.155945 H 36.85155 v -0.340032 h -0.0096 q -0.26045,0.400321 -0.764469,0.400321 -0.463022,0 -0.745176,-0.325562 -0.282154,-0.327974 -0.282154,-0.913986 0,-0.612539 0.311093,-0.98151 0.311093,-0.36897 0.815112,-0.36897 0.477491,0 0.665594,0.342443 h 0.0096 v -1.468648 h 0.762057 z m -0.747588,-1.200963 v -0.185691 q 0,-0.241157 -0.139871,-0.400321 -0.139871,-0.159164 -0.364147,-0.159164 -0.253215,0 -0.395498,0.200161 -0.142283,0.197748 -0.142283,0.545015 0,0.325562 0.13746,0.501607 0.137459,0.176045 0.381028,0.176045 0.231511,0 0.376205,-0.185691 0.147106,-0.185691 0.147106,-0.491961 z"
           id="path444" /><path
           d="m 40.473732,75.138261 h -1.61093 q 0.03858,0.537781 0.677652,0.537781 0.407555,0 0.716237,-0.192926 v 0.549839 q -0.342444,0.183279 -0.889871,0.183279 -0.59807,0 -0.928455,-0.330385 -0.330385,-0.332797 -0.330385,-0.926044 0,-0.614951 0.356912,-0.974275 0.356913,-0.359324 0.877813,-0.359324 0.540192,0 0.834404,0.320739 0.296623,0.320739 0.296623,0.870577 z m -0.706591,-0.467845 q 0,-0.530546 -0.429259,-0.530546 -0.18328,0 -0.318328,0.151929 -0.132637,0.15193 -0.161575,0.378617 z"
           id="path446" /></g><circle
         style="fill:#000000;stroke-width:0.264583"
         id="path283-5"
         cy="50.833332"
         cx="30"
         r="5"
         inkscape:label="BTN2" /><g
         aria-label="Next"
         transform="matrix(0.83333334,0,0,0.83333334,1.6666667,-2.083058)"
         id="text2066"
         style="font-weight:bold;font-size:4.93889px;font-family:'Segoe UI';-inkscape-font-specification:'Segoe UI Bold';text-align:center;text-anchor:middle;opacity:1;stroke:#000000;stroke-width:0"
         inkscape:label="Next"><path
           d="m 31.751422,50.958187 h -0.786171 l -1.425237,-2.172822 q -0.125401,-0.190514 -0.173632,-0.286977 h -0.0096 q 0.01929,0.18328 0.01929,0.559484 v 1.900315 H 28.6405 v -3.458188 h 0.839225 l 1.372182,2.105299 q 0.09405,0.142282 0.173633,0.282153 h 0.0096 q -0.01929,-0.120578 -0.01929,-0.475079 v -1.912373 h 0.735528 z"
           id="path431" /><path
           d="m 34.686299,49.940506 h -1.610927 q 0.03858,0.537779 0.677651,0.537779 0.407554,0 0.716235,-0.192925 v 0.549837 q -0.342442,0.183279 -0.889868,0.183279 -0.598069,0 -0.928454,-0.330384 -0.330384,-0.332797 -0.330384,-0.926042 0,-0.61495 0.356912,-0.974274 0.356912,-0.359323 0.87781,-0.359323 0.540191,0 0.834402,0.320738 0.296623,0.320739 0.296623,0.870576 z M 33.97971,49.472662 q 0,-0.530545 -0.429259,-0.530545 -0.183279,0 -0.318327,0.151929 -0.132636,0.151928 -0.161575,0.378616 z"
           id="path433" /><path
           d="m 37.524714,48.488742 -0.81511,1.196138 0.810287,1.273307 H 36.64208 l -0.356912,-0.665592 q -0.04341,-0.07958 -0.103697,-0.224276 h -0.0096 q -0.03617,0.101286 -0.09887,0.217041 l -0.359323,0.672827 h -0.875399 l 0.834402,-1.229899 -0.783759,-1.239546 h 0.882633 l 0.352089,0.69212 q 0.06994,0.137459 0.09887,0.23151 h 0.0096 q 0.03858,-0.113343 0.103697,-0.236333 l 0.359324,-0.687297 z"
           id="path435" /><path
           d="m 39.359917,50.929248 q -0.16881,0.08923 -0.508841,0.08923 -0.805463,0 -0.805463,-0.836814 v -1.131025 h -0.400321 v -0.561895 h 0.400321 v -0.532956 l 0.759643,-0.217041 v 0.749997 h 0.554661 v 0.561895 h -0.554661 v 0.998389 q 0,0.385851 0.306269,0.385851 0.120579,0 0.248392,-0.06994 z"
           id="path437" /></g><circle
         style="fill:#000000;stroke-width:0.264583"
         id="path283"
         cy="30"
         cx="30"
         r="5"
         inkscape:label="BTN1" /></g><g
       aria-label="Off"
       transform="scale(0.99996826,1.0000317)"
       id="text2132"
       style="font-weight:bold;font-size:4.93874px;font-family:'Segoe UI';-inkscape-font-specification:'Segoe UI Bold';text-align:center;text-anchor:middle;opacity:1;stroke:#000000;stroke-width:0"
       inkscape:label="Off"><path
         d="m 31.984365,149.76936 q -0.74274,0 -1.21057,-0.4823 -0.46783,-0.48471 -0.46783,-1.26121 0,-0.8199 0.475065,-1.32632 0.475064,-0.50641 1.258799,-0.50641 0.740329,0 1.196101,0.48471 0.458184,0.48471 0.458184,1.27809 0,0.81508 -0.475064,1.31426 -0.472653,0.49918 -1.234685,0.49918 z m 0.03376,-2.90585 q -0.409954,0 -0.651103,0.30867 -0.24115,0.30626 -0.24115,0.81268 0,0.51365 0.24115,0.81267 0.241149,0.29903 0.631811,0.29903 0.40272,0 0.639046,-0.28938 0.236326,-0.29179 0.236326,-0.80785 0,-0.53777 -0.229092,-0.83679 -0.229092,-0.29903 -0.626988,-0.29903 z"
         id="path463" /><path
         d="m 35.804172,146.63683 q -0.147102,-0.0579 -0.282145,-0.0579 -0.366547,0 -0.366547,0.39789 v 0.26286 h 0.564289 v 0.56187 H 35.15548 v 1.9075 h -0.759621 v -1.9075 h -0.414777 v -0.56187 h 0.414777 v -0.30626 q 0,-0.42202 0.27491,-0.68005 0.274911,-0.25802 0.747564,-0.25802 0.231503,0 0.385839,0.0482 z"
         id="path465" /><path
         d="m 37.697194,146.63683 q -0.147101,-0.0579 -0.282144,-0.0579 -0.366548,0 -0.366548,0.39789 v 0.26286 h 0.56429 v 0.56187 h -0.56429 v 1.9075 h -0.75962 v -1.9075 h -0.414777 v -0.56187 h 0.414777 v -0.30626 q 0,-0.42202 0.27491,-0.68005 0.27491,-0.25802 0.747563,-0.25802 0.231504,0 0.385839,0.0482 z"
         id="path467" /></g><circle
       style="fill:#000000;stroke-width:0.190929"
       id="path245"
       cx="10"
       cy="16.5"
       r="6"
       inkscape:label="power switch"
       transform="translate(24,120.5)" /><g
       aria-label="On"
       id="text2128"
       style="font-weight:bold;font-size:4.9389px;font-family:'Segoe UI';-inkscape-font-specification:'Segoe UI Bold';text-align:center;text-anchor:middle;opacity:1;stroke:#000000;stroke-width:0"
       inkscape:label="On"><path
         d="m 32.542453,128.00036 q -0.742764,0 -1.210609,-0.48231 -0.467845,-0.48473 -0.467845,-1.26126 0,-0.81993 0.47508,-1.32636 0.475079,-0.50643 1.25884,-0.50643 0.740353,0 1.19614,0.48472 0.458199,0.48473 0.458199,1.27814 0,0.81511 -0.47508,1.3143 -0.472668,0.4992 -1.234725,0.4992 z m 0.03376,-2.90594 q -0.409967,0 -0.651124,0.30868 -0.241158,0.30627 -0.241158,0.8127 0,0.51366 0.241158,0.8127 0.241157,0.29903 0.631832,0.29903 0.402732,0 0.639066,-0.28939 0.236334,-0.2918 0.236334,-0.80787 0,-0.53778 -0.229099,-0.83682 -0.229099,-0.29903 -0.627009,-0.29903 z"
         id="path458" /><path
         d="m 37.136498,127.94007 h -0.759645 v -1.37218 q 0,-0.57396 -0.409967,-0.57396 -0.197749,0 -0.325562,0.15193 -0.127814,0.15193 -0.127814,0.38585 v 1.40836 h -0.762057 v -2.46945 h 0.762057 v 0.39068 h 0.0096 q 0.272508,-0.45097 0.793408,-0.45097 0.819934,0 0.819934,1.01769 z"
         id="path460" /></g><rect
       style="fill:#000000;stroke-width:0.212191"
       id="rect358"
       width="12"
       height="25"
       x="131"
       y="-179.6458"
       transform="rotate(90)"
       inkscape:label="power connector" /></g></svg>
