<?xml version="1.0" encoding="UTF-8" standalone="no"?>
<!-- Created with Inkscape (http://www.inkscape.org/) -->

<svg
   width="192mm"
   height="192mm"
   viewBox="0 0 192 192"
   version="1.1"
   id="svg5"
   sodipodi:docname="display_frame_waveshare.svg"
   inkscape:version="1.2.2 (732a01da63, 2022-12-09)"
   xmlns:inkscape="http://www.inkscape.org/namespaces/inkscape"
   xmlns:sodipodi="http://sodipodi.sourceforge.net/DTD/sodipodi-0.dtd"
   xmlns="http://www.w3.org/2000/svg"
   xmlns:svg="http://www.w3.org/2000/svg">
  <sodipodi:namedview
     id="namedview7"
     pagecolor="#505050"
     bordercolor="#ffffff"
     borderopacity="1"
     inkscape:showpageshadow="0"
     inkscape:pageopacity="0"
     inkscape:pagecheckerboard="1"
     inkscape:deskcolor="#505050"
     inkscape:document-units="mm"
     showgrid="false"
     inkscape:zoom="1.6385"
     inkscape:cx="292.0354"
     inkscape:cy="464.44919"
     inkscape:window-width="3840"
     inkscape:window-height="2054"
     inkscape:window-x="2869"
     inkscape:window-y="-11"
     inkscape:window-maximized="1"
     inkscape:current-layer="layer1" />
  <defs
     id="defs2" />
  <g
     inkscape:label="Layer 1"
     inkscape:groupmode="layer"
     id="layer1">
    <path
       id="rect234"
       style="fill:#000000;stroke:#000000;stroke-width:0"
       d="M 0 0 L 0 192.00017 L 16.000057 192.00017 L 37.999748 192.00017 L 37.999748 186.00002 L 67.999984 186.00002 L 67.999984 192.00017 L 124.00018 192.00017 L 124.00018 186.00002 L 153.9999 186.00002 L 153.9999 192.00017 L 176.00011 192.00017 L 192.00017 192.00017 L 192.00017 0 L 176.00011 0 L 153.9999 0 L 153.9999 6.0001506 L 124.00018 6.0001506 L 124.00018 0 L 67.999984 0 L 67.999984 6.0001506 L 37.999748 6.0001506 L 37.999748 0 L 16.000057 0 L 0 0 z M 32.40009 6.6001139 A 1.2499995 1.2499995 0 0 1 33.650142 7.8501668 A 1.2499995 1.2499995 0 0 1 32.40009 9.1002197 A 1.2499995 1.2499995 0 0 1 31.150037 7.8501668 A 1.2499995 1.2499995 0 0 1 32.40009 6.6001139 z M 8.5002563 15.000118 A 1.5 1.5 0 0 1 9.9999064 16.499768 A 1.5 1.5 0 0 1 8.5002563 17.999935 A 1.5 1.5 0 0 1 7.0000895 16.499768 A 1.5 1.5 0 0 1 8.5002563 15.000118 z M 183.49991 15.000118 A 1.5 1.5 0 0 1 185.00008 16.499768 A 1.5 1.5 0 0 1 183.49991 17.999935 A 1.5 1.5 0 0 1 181.99974 16.499768 A 1.5 1.5 0 0 1 183.49991 15.000118 z M 16.000057 16.000057 L 72.499967 16.000057 L 72.499967 176.00011 L 16.000057 176.00011 L 16.000057 16.000057 z M 88.500024 16.000057 L 176.00011 16.000057 L 176.00011 176.00011 L 88.500024 176.00011 L 88.500024 16.000057 z M 8.5002563 177.00005 A 1.5 1.5 0 0 1 9.9999064 178.50022 A 1.5 1.5 0 0 1 8.5002563 179.99987 A 1.5 1.5 0 0 1 7.0000895 178.50022 A 1.5 1.5 0 0 1 8.5002563 177.00005 z M 183.49991 177.00005 A 1.5 1.5 0 0 1 185.00008 178.50022 A 1.5 1.5 0 0 1 183.49991 179.99987 A 1.5 1.5 0 0 1 181.99974 178.50022 A 1.5 1.5 0 0 1 183.49991 177.00005 z M 162.10018 185.40005 A 1.2499996 1.2499995 0 0 1 163.35024 186.65011 A 1.2499996 1.2499995 0 0 1 162.10018 187.90016 A 1.2499996 1.2499995 0 0 1 160.85013 186.65011 A 1.2499996 1.2499995 0 0 1 162.10018 185.40005 z " />
  </g>
</svg>
