<?xml version="1.0" encoding="iso-8859-1"?>
<!-- Uploaded to: SVG Repo, www.svgrepo.com, Generator: SVG Repo Mixer Tools -->
<!DOCTYPE svg PUBLIC "-//W3C//DTD SVG 1.1//EN" "http://www.w3.org/Graphics/SVG/1.1/DTD/svg11.dtd">
<svg fill="#000000" version="1.1" id="Capa_1" xmlns="http://www.w3.org/2000/svg" xmlns:xlink="http://www.w3.org/1999/xlink" 
	 width="800px" height="800px" viewBox="0 0 922 922" xml:space="preserve">
<g>
	<path d="M922,453V81c0-11.046-8.954-20-20-20H410c-11.045,0-20,8.954-20,20v149h318c24.812,0,45,20.187,45,45v198h149
		C913.046,473.001,922,464.046,922,453z"/>
	<path d="M557,667.001h151c11.046,0,20-8.954,20-20v-174v-198c0-11.046-8.954-20-20-20H390H216c-11.045,0-20,8.954-20,20v149h194
		h122c24.812,0,45,20.187,45,45v4V667.001z"/>
	<path d="M0,469v372c0,11.046,8.955,20,20,20h492c11.046,0,20-8.954,20-20V692v-12.501V667V473v-4c0-11.046-8.954-20-20-20H390H196
		h-12.5H171H20C8.955,449,0,457.955,0,469z"/>
</g>
</svg>